<svg id="Capa_1" data-name="Capa 1" xmlns="http://www.w3.org/2000/svg" xmlns:xlink="http://www.w3.org/1999/xlink" viewBox="0 0 512 140.77"><defs><style>.cls-1{fill:none;}.cls-2{clip-path:url(#clip-path);}.cls-3{fill:#d5edf0;}.cls-4{fill:#a0c0e5;}.cls-5{fill:#1f3149;}</style><clipPath id="clip-path"><circle class="cls-1" cx="67.23" cy="66.41" r="45.03" transform="translate(-27.27 66.99) rotate(-45)"/></clipPath></defs><title>Plan de travail 1</title><g class="cls-2"><path class="cls-3" d="M57.36,110.31,47.3,100.25a1.55,1.55,0,0,0-2.13,0L35.11,110.31a1.5,1.5,0,0,0,0,2.13L45.17,122.5a1.5,1.5,0,0,0,2.13,0l10.06-10.06A1.5,1.5,0,0,0,57.36,110.31Z"/><path class="cls-3" d="M27.18,80.14,17.13,70.08a1.55,1.55,0,0,0-2.13,0L4.94,80.14a1.5,1.5,0,0,0,0,2.13L15,92.32a1.5,1.5,0,0,0,2.13,0L27.18,82.27A1.5,1.5,0,0,0,27.18,80.14Z"/><path class="cls-3" d="M37.24,90.2,27.18,80.14a1.55,1.55,0,0,0-2.13,0L15,90.2a1.5,1.5,0,0,0,0,2.13l10.06,10.06a1.5,1.5,0,0,0,2.13,0L37.24,92.32a1.5,1.5,0,0,0,0-2.13Z"/><path class="cls-3" d="M47.3,100.25,37.24,90.2a1.5,1.5,0,0,0-2.13,0L25.06,100.25a1.5,1.5,0,0,0,0,2.13l10.06,10.06a1.5,1.5,0,0,0,2.13,0L47.3,102.38A1.5,1.5,0,0,0,47.3,100.25Z"/><path class="cls-3" d="M67.42,100.25,57.36,90.2a1.5,1.5,0,0,0-2.13,0L45.17,100.25a1.5,1.5,0,0,0,0,2.13l10.06,10.06a1.5,1.5,0,0,0,2.13,0l10.06-10.06a1.51,1.51,0,0,0,0-2.13Z"/><path class="cls-3" d="M97.59,50,87.53,39.91a1.5,1.5,0,0,0-2.13,0L75.34,50a1.51,1.51,0,0,0,0,2.13L85.4,62.15a1.51,1.51,0,0,0,2.13,0L97.59,52.09a1.51,1.51,0,0,0,0-2.13Z"/><path class="cls-3" d="M87.53,39.91,77.47,29.85a1.55,1.55,0,0,0-2.13,0L65.29,39.91a1.51,1.51,0,0,0,0,2.13L75.34,52.09a1.51,1.51,0,0,0,2.13,0L87.53,42A1.51,1.51,0,0,0,87.53,39.91Z"/><path class="cls-3" d="M67.42,39.91,57.36,29.85a1.5,1.5,0,0,0-2.13,0L45.17,39.91a1.5,1.5,0,0,0,0,2.13L55.23,52.09a1.5,1.5,0,0,0,2.13,0L67.42,42a1.51,1.51,0,0,0,0-2.13Z"/><path class="cls-3" d="M57.36,29.85,47.3,19.79a1.5,1.5,0,0,0-2.13,0L35.11,29.85a1.5,1.5,0,0,0,0,2.13L45.17,42a1.5,1.5,0,0,0,2.13,0L57.36,32a1.51,1.51,0,0,0,0-2.13Z"/><path class="cls-3" d="M47.3,39.91,37.24,29.85a1.5,1.5,0,0,0-2.13,0L25.06,39.91a1.5,1.5,0,0,0,0,2.13L35.11,52.09a1.5,1.5,0,0,0,2.13,0L47.3,42A1.5,1.5,0,0,0,47.3,39.91Z"/><path class="cls-3" d="M37.24,50,27.18,39.91a1.5,1.5,0,0,0-2.13,0L15,50a1.5,1.5,0,0,0,0,2.13L25.06,62.15a1.5,1.5,0,0,0,2.13,0L37.24,52.09a1.5,1.5,0,0,0,0-2.13Z"/><path class="cls-3" d="M27.18,60,17.13,50A1.55,1.55,0,0,0,15,50L4.94,60a1.5,1.5,0,0,0,0,2.13L15,72.21a1.5,1.5,0,0,0,2.13,0L27.18,62.15A1.5,1.5,0,0,0,27.18,60Z"/><path class="cls-3" d="M97.59,70.08,87.53,60a1.55,1.55,0,0,0-2.13,0L75.34,70.08a1.51,1.51,0,0,0,0,2.13L85.4,82.27a1.51,1.51,0,0,0,2.13,0L97.59,72.21A1.51,1.51,0,0,0,97.59,70.08Z"/><path class="cls-3" d="M97.59,90.19,87.53,80.14a1.55,1.55,0,0,0-2.13,0L75.34,90.19a1.51,1.51,0,0,0,0,2.13L85.4,102.38a1.51,1.51,0,0,0,2.13,0L97.59,92.32A1.51,1.51,0,0,0,97.59,90.19Z"/><path class="cls-3" d="M87.53,100.25,77.47,90.2a1.51,1.51,0,0,0-2.13,0L65.29,100.25a1.51,1.51,0,0,0,0,2.13l10.06,10.06a1.51,1.51,0,0,0,2.13,0l10.06-10.06A1.51,1.51,0,0,0,87.53,100.25Z"/><path class="cls-3" d="M77.47,110.31,67.42,100.25a1.55,1.55,0,0,0-2.13,0L55.23,110.31a1.5,1.5,0,0,0,0,2.13L65.29,122.5a1.51,1.51,0,0,0,2.13,0l10.06-10.06A1.51,1.51,0,0,0,77.47,110.31Z"/><path class="cls-4" d="M77.47,50,67.42,39.91a1.51,1.51,0,0,0-2.13,0L55.23,50a1.5,1.5,0,0,0,0,2.13L65.29,62.15a1.51,1.51,0,0,0,2.13,0L77.47,52.09A1.51,1.51,0,0,0,77.47,50Z"/><path class="cls-4" d="M57.36,50,47.3,39.91a1.5,1.5,0,0,0-2.13,0L35.11,50a1.5,1.5,0,0,0,0,2.13L45.17,62.15a1.5,1.5,0,0,0,2.13,0L57.36,52.09a1.51,1.51,0,0,0,0-2.13Z"/><path class="cls-4" d="M47.3,60,37.24,50a1.55,1.55,0,0,0-2.13,0L25.06,60a1.5,1.5,0,0,0,0,2.13L35.11,72.21a1.5,1.5,0,0,0,2.13,0L47.3,62.15A1.5,1.5,0,0,0,47.3,60Z"/><path class="cls-4" d="M47.3,80.14,37.24,70.08a1.55,1.55,0,0,0-2.13,0L25.06,80.14a1.5,1.5,0,0,0,0,2.13L35.11,92.32a1.5,1.5,0,0,0,2.13,0L47.3,82.27A1.5,1.5,0,0,0,47.3,80.14Z"/><path class="cls-4" d="M57.36,90.2,47.3,80.14a1.55,1.55,0,0,0-2.13,0L35.11,90.2a1.5,1.5,0,0,0,0,2.13l10.06,10.06a1.5,1.5,0,0,0,2.13,0L57.36,92.32a1.51,1.51,0,0,0,0-2.13Z"/><path class="cls-4" d="M77.47,90.2,67.42,80.14a1.55,1.55,0,0,0-2.13,0L55.23,90.2a1.5,1.5,0,0,0,0,2.13l10.06,10.06a1.51,1.51,0,0,0,2.13,0L77.47,92.32A1.51,1.51,0,0,0,77.47,90.2Z"/><path class="cls-4" d="M87.53,80.14,77.47,70.08a1.51,1.51,0,0,0-2.13,0L65.29,80.14a1.51,1.51,0,0,0,0,2.13L75.34,92.32a1.51,1.51,0,0,0,2.13,0L87.53,82.27A1.51,1.51,0,0,0,87.53,80.14Z"/><path class="cls-4" d="M77.47,70.08,67.42,60a1.51,1.51,0,0,0-2.13,0L55.23,70.08a1.5,1.5,0,0,0,0,2.13L65.29,82.27a1.51,1.51,0,0,0,2.13,0L77.47,72.21A1.51,1.51,0,0,0,77.47,70.08Z"/><path class="cls-4" d="M87.53,60,77.47,50a1.55,1.55,0,0,0-2.13,0L65.29,60a1.51,1.51,0,0,0,0,2.13L75.34,72.21a1.51,1.51,0,0,0,2.13,0L87.53,62.15A1.51,1.51,0,0,0,87.53,60Z"/><path class="cls-5" d="M56.29,72.65a1.5,1.5,0,0,1-1.06-.44L45.17,62.15a1.5,1.5,0,0,1,0-2.13L55.23,50a1.5,1.5,0,0,1,2.13,0L67.42,60a1.51,1.51,0,0,1,0,2.13L57.36,72.21A1.5,1.5,0,0,1,56.29,72.65Z"/><path class="cls-5" d="M67.42,80.14,57.36,70.08a1.5,1.5,0,0,0-2.13,0L45.17,80.14a1.5,1.5,0,0,0,0,2.13L55.23,92.32a1.5,1.5,0,0,0,2.13,0L67.42,82.27a1.51,1.51,0,0,0,0-2.13Z"/><path class="cls-4" d="M37.24,70.08,27.18,60a1.5,1.5,0,0,0-2.13,0L15,70.08a1.5,1.5,0,0,0,0,2.13L25.06,82.27a1.5,1.5,0,0,0,2.13,0L37.24,72.21a1.5,1.5,0,0,0,0-2.13Z"/><path class="cls-5" d="M57.36,70.08,47.3,60a1.5,1.5,0,0,0-2.13,0L35.11,70.08a1.5,1.5,0,0,0,0,2.13L45.17,82.27a1.5,1.5,0,0,0,2.13,0L57.36,72.21a1.51,1.51,0,0,0,0-2.13Z"/></g><path class="cls-5" d="M108.11,25.53a57.81,57.81,0,0,0-88.23,74l-17,17a10,10,0,0,0,14.19,14.19l17-17a57.81,57.81,0,0,0,74-88.23ZM93.91,93.09A37.74,37.74,0,1,1,67.23,28.67h0A37.74,37.74,0,0,1,93.91,93.09Z"/><path class="cls-5" d="M170.5,76.91q2.78-1.77,4.21-1.77,2.53,0,6.15,4.46A7.4,7.4,0,0,1,182.8,84q0,3.2-4.63,6a20,20,0,0,1-11.79,3.37,21.76,21.76,0,0,1-7.7-1.47,27.85,27.85,0,0,1-7.37-4.17,20,20,0,0,1-5.64-7.2,22.5,22.5,0,0,1-2.19-10,21.78,21.78,0,0,1,2.19-9.81,20.45,20.45,0,0,1,5.6-7.11,26.45,26.45,0,0,1,7.32-4.13,21.62,21.62,0,0,1,13.85-.55,20.9,20.9,0,0,1,4.46,1.73l1.35.84q1.52,1,2.32,1.6a6.68,6.68,0,0,1,1.52,1.64A4,4,0,0,1,182.8,57,9,9,0,0,1,181,61.76q-3,4.63-5.81,4.63-1.6,0-4.55-1.85a6.27,6.27,0,0,0-4.46-1.43,8,8,0,0,0-5.14,2,6.82,6.82,0,0,0-2.44,5.56,6.9,6.9,0,0,0,2.36,5.6,7.72,7.72,0,0,0,5.05,2,8.24,8.24,0,0,0,2.44-.34,4.83,4.83,0,0,0,1.51-.67Z"/><path class="cls-5" d="M227.83,49q5,2.19,5,5.3a10.83,10.83,0,0,1-1.26,4v.09a.24.24,0,0,0-.08.17L209.4,108q-.67,1.6-1.14,2.44a5.17,5.17,0,0,1-1.47,1.6,3.82,3.82,0,0,1-2.36.76,12.77,12.77,0,0,1-4.63-1.26q-5-2.19-5-5.22a12.7,12.7,0,0,1,1.35-4.38q3.11-7.16,6.73-14.9l-16.75-28.2a9.4,9.4,0,0,1-1.68-4.13q0-2.69,4.55-5.39a10.12,10.12,0,0,1,4.88-1.68,3.87,3.87,0,0,1,2.19.67,5.07,5.07,0,0,1,1.47,1.39q.46.72,1.39,2.23,7.41,12.71,11.2,18.86.42-1.34,8.08-18.1.59-1.35.88-1.94a8.49,8.49,0,0,1,.93-1.39,3.74,3.74,0,0,1,1.39-1.14,4.58,4.58,0,0,1,1.85-.34A11.84,11.84,0,0,1,227.83,49Z"/><path class="cls-5" d="M263.19,63.44l-5.47-.34V74.72a5.8,5.8,0,0,0,.72,3.28A2.93,2.93,0,0,0,261,79a28.68,28.68,0,0,1,3.16.13,6,6,0,0,1,2.19.76,3.29,3.29,0,0,1,1.56,2,12.94,12.94,0,0,1,.42,3.7,13.29,13.29,0,0,1-.55,4.21A3.67,3.67,0,0,1,266,92a7.25,7.25,0,0,1-2.23.76,23.64,23.64,0,0,1-2.82.13q-8.76,0-13.3-4t-4.55-13.39V63.11a19.62,19.62,0,0,1-3,.25,4.34,4.34,0,0,1-3.49-1.43q-1.22-1.43-1.22-6a15.28,15.28,0,0,1,.42-3.91A4.31,4.31,0,0,1,237,49.8a4.23,4.23,0,0,1,1.56-.88,6.68,6.68,0,0,1,1.77-.21l2.78.34V40.37a23.34,23.34,0,0,1,.13-2.86,6,6,0,0,1,.76-2.06,3.51,3.51,0,0,1,2.23-1.6,16,16,0,0,1,4.29-.46,12.27,12.27,0,0,1,3.49.42,7.36,7.36,0,0,1,2.15,1,3.26,3.26,0,0,1,1.14,1.68,7.67,7.67,0,0,1,.42,2q0,.84,0,2.36V49q3.7-.33,5.56-.34a24.63,24.63,0,0,1,2.91.13,6.79,6.79,0,0,1,2.19.76,3.57,3.57,0,0,1,1.73,2.23,14.75,14.75,0,0,1,.5,4.29,14.37,14.37,0,0,1-.5,4.21,3.54,3.54,0,0,1-1.77,2.23,7.2,7.2,0,0,1-2.23.76A24.27,24.27,0,0,1,263.19,63.44Z"/><path class="cls-5" d="M297,47.53a23.08,23.08,0,0,1,16.25,6.52,21.75,21.75,0,0,1,7,16.63,21.89,21.89,0,0,1-3.62,12.42,22.71,22.71,0,0,1-8.8,8,23.68,23.68,0,0,1-10.65,2.57,23.09,23.09,0,0,1-10.86-2.74,23.87,23.87,0,0,1-8.8-8.08A21.21,21.21,0,0,1,274,70.77,21.75,21.75,0,0,1,281,54.1,22.89,22.89,0,0,1,297,47.53Zm-5.47,29.25A8.93,8.93,0,0,0,297,78.85a9.18,9.18,0,0,0,5.56-2.1,7.33,7.33,0,0,0,2.78-6.23q0-4.12-2.61-6.15a9.25,9.25,0,0,0-5.81-2,8.61,8.61,0,0,0-5.47,2.1,7.43,7.43,0,0,0-2.61,6.15A7.3,7.3,0,0,0,291.56,76.78Z"/><path class="cls-5" d="M374.82,48.46a14.41,14.41,0,0,1,11.28,5.18q4.55,5.18,4.55,17.13V85.5a24.58,24.58,0,0,1-.13,2.9,7.21,7.21,0,0,1-.76,2.23,3.53,3.53,0,0,1-2.23,1.77,14.75,14.75,0,0,1-4.29.5,13.29,13.29,0,0,1-4.21-.55,3.67,3.67,0,0,1-2.23-1.81,7.21,7.21,0,0,1-.76-2.23,24.28,24.28,0,0,1-.13-2.91V70.68q0-7.33-5.22-7.32-2.95,0-4,1.94a11.61,11.61,0,0,0-1.05,5.47V85.5a24.44,24.44,0,0,1-.13,2.95,6.81,6.81,0,0,1-.8,2.19,3.7,3.7,0,0,1-2.27,1.77,14.75,14.75,0,0,1-4.29.5,13.29,13.29,0,0,1-4.21-.55,3.67,3.67,0,0,1-2.23-1.81,7.21,7.21,0,0,1-.76-2.23,24.59,24.59,0,0,1-.13-2.91V70.68q0-7.33-5.22-7.32-5.05,0-5.05,7.32v14.9a24.55,24.55,0,0,1-.13,2.9,6.37,6.37,0,0,1-.8,2.19,3.74,3.74,0,0,1-2.27,1.73,14.76,14.76,0,0,1-4.29.5,14.37,14.37,0,0,1-4.21-.5,3.53,3.53,0,0,1-2.23-1.77,7.3,7.3,0,0,1-.76-2.19,24.44,24.44,0,0,1-.13-2.95V55.86a24.58,24.58,0,0,1,.13-2.9,6.36,6.36,0,0,1,.8-2.19A3.74,3.74,0,0,1,328.94,49a14.75,14.75,0,0,1,4.29-.5q4.12,0,5.56,1.51a6.14,6.14,0,0,1,1.43,4.38l.42-.63a17.24,17.24,0,0,1,1.18-1.43,15,15,0,0,1,1.94-1.85,10.15,10.15,0,0,1,2.65-1.43,9.2,9.2,0,0,1,3.33-.63,13.81,13.81,0,0,1,12.8,7.32,28.44,28.44,0,0,1,2.23-2.65,18.4,18.4,0,0,1,4.17-3A11.71,11.71,0,0,1,374.82,48.46Z"/><path class="cls-5" d="M404.71,42.56a14.32,14.32,0,0,1-4.21-.5,3.53,3.53,0,0,1-2.23-1.77,7.24,7.24,0,0,1-.76-2.23,24.55,24.55,0,0,1-.13-2.9,24.58,24.58,0,0,1,.13-2.9,6.82,6.82,0,0,1,.76-2.19,3.57,3.57,0,0,1,2.23-1.72,14.68,14.68,0,0,1,4.29-.51,14.35,14.35,0,0,1,4.21.51,3.53,3.53,0,0,1,2.23,1.77,7.21,7.21,0,0,1,.76,2.23,24.3,24.3,0,0,1,.13,2.9,24.28,24.28,0,0,1-.13,2.91,6.76,6.76,0,0,1-.76,2.19A3.57,3.57,0,0,1,409,42.06,14.71,14.71,0,0,1,404.71,42.56Zm-7.32,13.39a24.6,24.6,0,0,1,.13-2.9,6.83,6.83,0,0,1,.76-2.19,3.56,3.56,0,0,1,2.23-1.73,14.68,14.68,0,0,1,4.29-.51,13.2,13.2,0,0,1,3.58.42,6.2,6.2,0,0,1,2.19,1,3.68,3.68,0,0,1,1.09,1.73,7.66,7.66,0,0,1,.42,1.94q0,.8,0,2.4V85.58a24.23,24.23,0,0,1-.13,2.9,6.76,6.76,0,0,1-.76,2.19A3.57,3.57,0,0,1,409,92.4a14.76,14.76,0,0,1-4.29.5,14.37,14.37,0,0,1-4.21-.5,3.53,3.53,0,0,1-2.23-1.77,7.3,7.3,0,0,1-.76-2.19,24.44,24.44,0,0,1-.13-2.95Z"/><path class="cls-5" d="M443.52,48.54a17.81,17.81,0,0,1,14,6.44,23.1,23.1,0,0,1,5.6,15.7V85.5a24.58,24.58,0,0,1-.13,2.9,6.81,6.81,0,0,1-.76,2.19A3.56,3.56,0,0,1,460,92.32a14.7,14.7,0,0,1-4.29.51,13,13,0,0,1-3.62-.42,7.28,7.28,0,0,1-2.19-1,3.27,3.27,0,0,1-1.14-1.72,8,8,0,0,1-.42-1.94q0-.76,0-2.36V70.6a7.19,7.19,0,0,0-2-5.39,8.21,8.21,0,0,0-10.69.08,7.09,7.09,0,0,0-2.06,5.3V85.5a24.27,24.27,0,0,1-.13,2.9,6.76,6.76,0,0,1-.76,2.19,3.56,3.56,0,0,1-2.23,1.73,14.71,14.71,0,0,1-4.29.51,14.32,14.32,0,0,1-4.21-.51,3.53,3.53,0,0,1-2.23-1.77,7.25,7.25,0,0,1-.76-2.23,24.59,24.59,0,0,1-.13-2.91V55.61a23.64,23.64,0,0,1,.13-2.82,6,6,0,0,1,.8-2.15A3.63,3.63,0,0,1,422,49a15.61,15.61,0,0,1,4.21-.46,14,14,0,0,1,4.13.5,3.77,3.77,0,0,1,2.19,1.47,5.23,5.23,0,0,1,.72,1.64,10,10,0,0,1,.13,1.77,5.69,5.69,0,0,1,.46-.59q.29-.34,1.26-1.26a14.23,14.23,0,0,1,2.06-1.64A12.67,12.67,0,0,1,440,49.13,10.77,10.77,0,0,1,443.52,48.54Z"/><path class="cls-5" d="M512.63,65q0,5.56-2.57,8a8,8,0,0,1-5.68,2.48h-20q0,2.36,2.78,4a11.78,11.78,0,0,0,6,1.6,26.12,26.12,0,0,0,4.29-.34,18,18,0,0,0,2.95-.67l.93-.34a8.5,8.5,0,0,1,3.37-.93q2.69,0,4.63,3.79a9.3,9.3,0,0,1,1.09,3.87q0,7.5-17.93,7.49a27,27,0,0,1-11.07-2.15,19,19,0,0,1-7.54-5.64,25.21,25.21,0,0,1-4-7.37,24.59,24.59,0,0,1-1.31-7.91q0-10.61,6.86-17t17.13-6.35a24.11,24.11,0,0,1,7.58,1.14,18.26,18.26,0,0,1,5.72,2.95,18,18,0,0,1,3.83,4.17A17.32,17.32,0,0,1,512,60.54,16.1,16.1,0,0,1,512.63,65ZM494.87,67.9q3.2,0,3.2-2.69a3.8,3.8,0,0,0-1.47-3.12,6.67,6.67,0,0,0-4.25-1.18A8.47,8.47,0,0,0,487,63.15q-2.69,2.23-2.69,4.76Z"/></svg>