<?xml version="1.0" encoding="UTF-8"?>
<!DOCTYPE svg PUBLIC "-//W3C//DTD SVG 1.1//EN" "http://www.w3.org/Graphics/SVG/1.1/DTD/svg11.dtd">
<svg version="1.1" xmlns="http://www.w3.org/2000/svg" xmlns:xlink="http://www.w3.org/1999/xlink"
    preserveAspectRatio="xMidYMid meet"
    x="0" y="0" width="85" height="15" viewBox="0, 0, 85, 15">
    <path d="M6,12 L4,12 L4,15.001 L-0,15.001 L-0,-0.001 C0.969,0.023 4.406,-0.001 6,-0.001 C10.691,-0.001 13.001,1.963 13.001,6 C13.001,9.674 10.253,12 6,12 z M5.001,3 C4.765,3 4.267,2.984 4,3 L4,9 L5.001,9 C7.377,9 9.001,7.867 9.001,6 C9.001,4.192 7.252,3 5.001,3 z M24,15.001 L24,9 L18.999,9 L18.999,15.001 L14.999,15.001 L14.999,-0.001 L18.999,-0.001 L18.999,6 L24,6 L24,-0.001 L28,-0.001 L28,15.001 L24,15.001 z M32,15.001 L32,-0.001 L36.001,-0.001 L36.001,15.001 L32,15.001 z M48.001,15.001 L40.001,15.001 L40.001,-0.001 L44.001,-0.001 L44.001,12 L49,12 L48.001,15.001 z M51,15.001 L51,-0.001 L55,-0.001 L55,15.001 L51,15.001 z M65,12 L63,12 L63,15.001 L59,15.001 L59,-0.001 C59.969,0.023 63.407,-0.001 65,-0.001 C69.691,-0.001 72,1.963 72,6 C72,9.674 69.253,12 65,12 z M64,3 C63.766,3 63.266,2.984 63,3 L63,9 L64,9 C66.376,9 68,7.867 68,6 C68,4.192 66.253,3 64,3 z M77.807,3.976 C77.807,6.264 85.001,5.362 85.001,10.18 C85.001,13.794 81.873,14.999 78.058,14.999 C76.558,14.999 74.681,14.759 73.304,14.276 L72.803,10.963 C74.18,11.625 76.495,12.109 77.995,12.109 C79.685,12.109 80.373,11.625 80.373,10.722 C80.373,8.373 73.241,9.396 73.241,4.338 C73.241,1.402 75.745,0.001 79.434,0.001 C81.374,0.001 82.436,0.181 83.625,0.422 L84.002,3.554 C82.936,3.133 81.374,2.833 79.935,2.833 C78.623,2.833 77.807,3.193 77.807,3.976 z" fill="#0065d3"  id="Philips wordmark"/>
</svg>
